<svg width="143" height="143" viewBox="0 0 143 143" fill="none" xmlns="http://www.w3.org/2000/svg">
<path d="M88.0627 126.622H54.9343V91.1702C54.9343 87.8932 57.6156 85.2119 60.8927 85.2119H82.1043C85.3814 85.2119 88.0627 87.8932 88.0627 91.1702V126.622V126.622Z" stroke="#8E8D8D" stroke-width="7" stroke-linecap="round" stroke-linejoin="round"/>
<path d="M126.614 67.875V107.855C126.614 118.223 118.63 126.624 108.739 126.624H34.26C24.3692 126.624 16.385 118.223 16.385 107.855V67.875C16.385 62.2742 18.7088 57.0309 22.82 53.4559L60.0596 20.7446C66.6733 14.9054 76.3258 14.9054 82.9396 20.7446L120.179 53.4559C124.29 57.0309 126.614 62.2742 126.614 67.875Z" stroke="#8E8D8D" stroke-width="7" stroke-linecap="round" stroke-linejoin="round"/>
</svg>
