<svg width="146" height="151" viewBox="0 0 146 151" fill="none" xmlns="http://www.w3.org/2000/svg">
<ellipse cx="73" cy="75.5002" rx="60.8333" ry="62.9167" stroke="#8E8D8D" stroke-width="7"/>
<path d="M118.317 117.474L115.882 119.988L118.54 122.563L120.963 119.766L118.317 117.474ZM27.6826 117.474L25.0374 119.766L27.4604 122.563L30.1178 119.988L27.6826 117.474ZM130.333 75.5002C130.333 90.7682 124.781 104.67 115.672 115.182L120.963 119.766C131.15 108.01 137.333 92.4891 137.333 75.5002H130.333ZM73 16.0835C104.554 16.0835 130.333 42.5732 130.333 75.5002H137.333C137.333 38.9313 108.64 9.0835 73 9.0835V16.0835ZM15.6667 75.5002C15.6667 42.5732 41.4458 16.0835 73 16.0835V9.0835C37.3595 9.0835 8.66667 38.9313 8.66667 75.5002H15.6667ZM30.3277 115.182C21.2187 104.67 15.6667 90.7682 15.6667 75.5002H8.66667C8.66667 92.4891 14.8502 108.01 25.0374 119.766L30.3277 115.182ZM30.1178 119.988C33.6189 116.597 40.4806 113.457 48.7629 111.172C56.9124 108.923 65.8486 107.662 72.9983 107.662V100.662C65.1442 100.662 55.58 102.03 46.9014 104.424C38.3556 106.781 30.0613 110.297 25.2473 114.961L30.1178 119.988ZM72.9983 107.662C80.1481 107.662 89.085 108.923 97.2353 111.172C105.519 113.457 112.381 116.597 115.882 119.988L120.753 114.96C115.938 110.297 107.643 106.781 99.0967 104.424C90.4173 102.03 80.8525 100.662 72.9983 100.662V107.662Z" fill="#8E8D8D"/>
<ellipse cx="72.9992" cy="59.4215" rx="27.037" ry="27.963" stroke="#8E8D8D" stroke-width="7"/>
<ellipse cx="72.9992" cy="59.4215" rx="27.037" ry="27.963" stroke="#8E8D8D" stroke-width="7"/>
</svg>
